HIERARCHY
ROOT RootJoint
{
    OFFSET   0.000000   0.000000   0.000000
    CHANNELS 6 Xposition Yposition Zposition Xrotation Yrotation Zrotation
    JOINT pelvis_lowerback
    {
        OFFSET   0.000000   0.093605   0.000000
        CHANNELS 3 Xrotation Yrotation Zrotation
        JOINT lowerback_torso
        {
            OFFSET   0.000000   0.100000   0.000000
            CHANNELS 3 Xrotation Yrotation Zrotation
            JOINT torso_head
            {
                OFFSET   0.000000   0.282350   0.000000
                CHANNELS 3 Xrotation Yrotation Zrotation
                End Site
                {
                    OFFSET   0.000000   0.192650   0.000000
                }
            }
            JOINT rTorso_Clavicle
            {
                OFFSET  -0.001000   0.157500   0.000000
                CHANNELS 3 Xrotation Yrotation Zrotation
                JOINT rShoulder
                {
                    OFFSET  -0.117647   0.000000   0.000000
                    CHANNELS 3 Xrotation Yrotation Zrotation
                    JOINT rElbow
                    {
                        OFFSET  -0.245000   0.000000   0.000000
                        CHANNELS 3 Xrotation Yrotation Zrotation
                        JOINT rWrist
                        {
                            OFFSET  -0.240000   0.000000   0.000000
                            CHANNELS 3 Xrotation Yrotation Zrotation
                            End Site
                            {
                                OFFSET  -0.116353  -0.002500   0.000000
                            }
                        }
                    }
                }
            }
            JOINT lTorso_Clavicle
            {
                OFFSET   0.001000   0.157500   0.000000
                CHANNELS 3 Xrotation Yrotation Zrotation
                JOINT lShoulder
                {
                    OFFSET   0.117647   0.000000   0.000000
                    CHANNELS 3 Xrotation Yrotation Zrotation
                    JOINT lElbow
                    {
                        OFFSET   0.245000   0.000000   0.000000
                        CHANNELS 3 Xrotation Yrotation Zrotation
                        JOINT lWrist
                        {
                            OFFSET   0.240000   0.000000   0.000000
                            CHANNELS 3 Xrotation Yrotation Zrotation
                            End Site
                            {
                                OFFSET   0.116353  -0.002500   0.000000
                            }
                        }
                    }
                }
            }
        }
    }
    JOINT rHip
    {
        OFFSET  -0.100000  -0.051395   0.000000
        CHANNELS 3 Xrotation Yrotation Zrotation
        JOINT rKnee
        {
            OFFSET   0.000000  -0.410000   0.000000
            CHANNELS 3 Xrotation Yrotation Zrotation
            JOINT rAnkle
            {
                OFFSET   0.000000  -0.390000   0.000000
                CHANNELS 3 Xrotation Yrotation Zrotation
                JOINT rToeJoint
                {
                    OFFSET   0.000000  -0.050000   0.130000
                    CHANNELS 3 Xrotation Yrotation Zrotation
                    End Site
                    {
                        OFFSET  -0.010000   0.002000   0.060000
                    }
                }
            }
        }
    }
    JOINT lHip
    {
        OFFSET   0.100000  -0.051395   0.000000
        CHANNELS 3 Xrotation Yrotation Zrotation
        JOINT lKnee
        {
            OFFSET   0.000000  -0.410000   0.000000
            CHANNELS 3 Xrotation Yrotation Zrotation
            JOINT lAnkle
            {
                OFFSET   0.000000  -0.390000   0.000000
                CHANNELS 3 Xrotation Yrotation Zrotation
                JOINT lToeJoint
                {
                    OFFSET   0.000000  -0.050000   0.130000
                    CHANNELS 3 Xrotation Yrotation Zrotation
                    End Site
                    {
                        OFFSET   0.010000   0.002000   0.060000
                    }
                }
            }
        }
    }
}
MOTION
Frames: 17
Frame Time:   0.008333
 -2.376719   0.925631   3.975860   0.000000   0.000000   0.000000   0.000000   0.000000   0.000000   0.000000   0.000000   0.000000   0.000000   0.000000   0.000000   0.000000   0.000000   0.000000   0.000000   0.000000   0.000000   0.000000   0.000000   0.000000   0.000000   0.000000   0.000000   0.000000   0.000000   0.000000   0.000000   0.000000   0.000000   0.000000   0.000000   0.000000   0.000000   0.000000   0.000000   0.000000   0.000000   0.000000   0.000000   0.000000   0.000000   0.000000   0.000000   0.000000   0.000000   0.000000   0.000000   0.000000   0.000000   0.000000   0.000000   0.000000   0.000000   0.000000   0.000000   0.000000   0.000000   0.000000   0.000000
 -2.377258   0.925715   3.973439   1.397665   0.762227  -0.557005  -1.461467  -0.570392   0.272718   0.567786  -0.549137   0.531440  -0.814158  -0.015583   0.011065   0.467819  -0.647183  -0.108298  -0.025779   0.027755   1.411564   0.039100   2.823619  -0.023830   0.209082  -0.796706  -1.895140   0.458898   0.705793  -0.367308   1.761888   1.152822  -1.864156   0.063751  -3.604501   0.086656   0.242139   0.456428   2.131420  -2.620465  -0.642302   0.689037   3.347244  -0.004720   0.004416  -3.759175  -0.641813  -0.093209   0.678794  -0.000531  -0.002972  -3.175888  -0.734266   0.672076   3.646355  -0.004941   0.002072  -2.458200   0.313052  -0.307846   0.943662   0.001268   0.003022
 -2.377990   0.925748   3.970913   2.659356   1.634325  -1.221270  -2.712323  -1.198354   0.568118   1.224474  -1.157829   1.130135  -1.560879  -0.045024   0.071670   0.913985  -1.323351   0.266238  -0.053959   0.054634   3.101230   0.089132   5.530608  -0.044359   0.451934  -0.892142  -3.333925   0.923165   1.401661  -1.275786   3.545665   2.227123  -4.222801   0.151116  -7.042092   0.156920   0.587433   0.106513   3.782648  -5.080056  -1.284252   1.457014   6.982467  -0.009307   0.014308  -7.518273  -1.277645  -0.231272   1.156415  -0.000926  -0.003757  -6.389725  -1.505488   1.414799   7.557171  -0.010593   0.009720  -4.739981   0.622098  -0.583695   1.797029   0.001588   0.006216
 -2.378807   0.925430   3.968542   3.814768   2.472687  -1.891496  -3.817500  -1.809355   0.834142   1.909038  -1.749162   1.708960  -2.236493  -0.074295   0.142168   1.340583  -1.957442   0.971604  -0.082321   0.075064   4.940400   0.136881   8.059768  -0.058988   0.691604  -0.849964  -4.212753   1.368882   2.022008  -2.502181   5.352872   3.195857  -6.905532   0.240455 -10.257205   0.209105   0.940316  -0.407049   4.837618  -7.316667  -1.908112   2.189289  10.570674  -0.012136   0.023717 -11.027931  -1.860389  -0.397617   1.580433  -0.001183  -0.003920  -9.517859  -2.271786   2.109609  11.458741  -0.015138   0.018085  -6.866293   0.922880  -0.829147   2.587930   0.001490   0.008759
 -2.379674   0.924558   3.966441   4.882281   3.214942  -2.538175  -4.813526  -2.376199   1.058777   2.586693  -2.294049   2.240742  -2.854432  -0.102430   0.213621   1.752925  -2.536098   1.886288  -0.106706   0.095625   6.845003   0.176413  10.420063  -0.068011   0.919946  -0.785179  -4.650479   1.795438   2.583168  -3.936251   7.137641   4.031716  -9.739176   0.319897 -13.258036   0.244773   1.282657  -0.939792   5.383230  -9.321216  -2.511034   2.868446  13.968195  -0.013523   0.029858 -14.304259  -2.393819  -0.584001   1.969084  -0.001323  -0.003948 -12.530528  -3.020570   2.735735  15.320600  -0.018572   0.024770  -8.851547   1.212941  -1.046791   3.307036   0.001161   0.010308
 -2.380580   0.922986   3.964644   5.873196   3.838329  -3.150692  -5.725409  -2.887294   1.238011   3.238375  -2.780180   2.714211  -3.422721  -0.129730   0.283803   2.152960  -3.062680   2.922732  -0.125367   0.115359   8.755840   0.205423  12.621872  -0.072236   1.135423  -0.722445  -4.772203   2.204533   3.105903  -5.503795   8.849005   4.724178 -12.575388   0.383297 -16.055601   0.266060   1.605516  -1.448029   5.523591 -11.119249  -3.091158   3.497734  17.166178  -0.014213   0.032489 -17.364829  -2.881573  -0.784128   2.320579  -0.001368  -0.003978 -15.420885  -3.750724   3.296765  19.150336  -0.021368   0.028999 -10.705424   1.490929  -1.239375   3.959600   0.000688   0.010936
 -2.381505   0.920607   3.963160   6.792028   4.341151  -3.724836  -6.569863  -3.342408   1.372366   3.854802  -3.208155   3.129837  -3.947001  -0.156027   0.349701   2.540816  -3.543666   4.015212  -0.138087   0.132156  10.629881   0.223755  14.675257  -0.072564   1.338269  -0.669587  -4.681752   2.597404   3.599701  -7.128845  10.485120   5.290743 -15.358409   0.429326 -18.662956   0.276213   1.905195  -1.918597   5.387322 -12.731656  -3.647042   4.082526  20.173118  -0.014683   0.032277 -20.224230  -3.327023  -0.993152   2.638356  -0.001343  -0.004033 -18.183635  -4.461387   3.800206  22.956290  -0.023899   0.030944 -12.436435   1.756144  -1.409623   4.552787   0.000136   0.010870
 -2.381874   0.916917   3.961798   7.086538   4.658394  -4.165222  -6.819428  -3.678520   1.627630   4.564714  -3.395977   3.404494  -4.509775   0.090984   0.191146   2.539898  -3.818229   4.764790  -0.395798   0.125578  12.195994   0.228506  16.848326  -0.064295   1.392124  -1.193942  -3.890307   2.796665   3.868600  -8.470163  12.332590   5.342301 -17.853312   0.434956 -20.788954   0.276714   1.958790  -2.203885   4.574916 -13.568263  -4.119640   4.499327  23.416488  -0.013426   0.027719 -23.320899  -3.568986  -0.954473   3.016302  -0.001756  -0.004022 -20.458959  -4.711427   4.182397  26.937808  -0.020200   0.041018 -13.634136   2.124483  -1.370626   5.167942  -0.000831   0.012982
 -2.382002   0.912062   3.960563   7.277557   4.873139  -4.559818  -7.038766  -3.932312   1.902334   5.264177  -3.499469   3.642423  -5.023015   0.336728   0.034265   2.507516  -3.951879   5.287777  -0.666006   0.205680  13.529434   0.221542  18.916527  -0.056369   1.446698  -1.582361  -3.251288   2.960881   4.031972  -9.608361  14.035936   5.265239 -20.092140   0.426626 -22.794641   0.270250   2.013095  -2.503010   3.803620 -14.117041  -4.545577   4.845980  26.569942  -0.011837   0.021537 -26.209477  -3.797892  -0.928865   3.349716  -0.001743  -0.004088 -22.724634  -4.935734   4.497253  30.924603  -0.015403   0.046603 -14.744178   2.470453  -1.325754   5.780104  -0.001398   0.014230
 -2.381992   0.906132   3.959485   7.421818   4.991613  -4.922497  -7.253803  -4.110810   2.174365   5.907061  -3.534421   3.861009  -5.502159   0.568445  -0.107222   2.454057  -3.994567   5.655373  -0.940831   0.336575  14.686383   0.207888  20.873525  -0.048691   1.515479  -1.818276  -2.808196   3.102176   4.153918 -10.584864  15.608571   5.121556 -22.111794   0.409091 -24.678319   0.258288   2.068591  -2.843250   3.179380 -14.450087  -4.928637   5.150156  29.577582  -0.010621   0.014461 -28.903301  -4.014553  -0.914768   3.660681  -0.001523  -0.004240 -24.992748  -5.162031   4.769560  34.867298  -0.010950   0.047862 -15.781374   2.791933  -1.276610   6.343606  -0.001713   0.014424
 -2.381890   0.899191   3.958584   7.531607   5.024007  -5.257269  -7.468831  -4.223237   2.436781   6.490293  -3.509683   4.062642  -5.952387   0.786135  -0.235384   2.384862  -3.977988   5.914532  -1.216188   0.496201  15.705622   0.190821  22.718645  -0.041418   1.591814  -1.941491  -2.516907   3.230834   4.262662 -11.430994  17.065154   4.943787 -23.944036   0.385725 -26.439445   0.242573   2.120885  -3.188500   2.683482 -14.605036  -5.271761   5.421813  32.433161  -0.009990   0.007134 -31.416410  -4.218663  -0.910395   3.948443  -0.001194  -0.004419 -27.248169  -5.392676   5.009760  38.762720  -0.007394   0.045999 -16.751299   3.090605  -1.224368   6.858498  -0.001894   0.013894
 -2.381721   0.891288   3.957859   7.611157   4.983065  -5.566528  -7.684235  -4.279491   2.687230   7.019092  -3.434684   4.248424  -6.375712   0.990513  -0.352527   2.304596  -3.922538   6.097072  -1.488687   0.670875  16.614513   0.172446  24.453931  -0.034708   1.671202  -1.986240  -2.335177   3.353990   4.371600 -12.171278  18.418214   4.750280 -25.614870   0.359010 -28.081433   0.224623   2.167967  -3.512638   2.285050 -14.612230  -5.577534   5.665445  35.139495  -0.009921   0.000094 -33.761275  -4.410309  -0.914274   4.213765  -0.000821  -0.004581 -29.474720  -5.627151   5.223120  42.616007  -0.004883   0.042133 -17.658383   3.368129  -1.170107   7.328213  -0.002004   0.012924
 -2.381500   0.882461   3.957303   7.662947   4.881598  -5.852543  -7.898976  -4.289288   2.925377   7.499778  -3.318864   4.419770  -6.773531   1.182327  -0.460229   2.217007  -3.841652   6.225020  -1.755729   0.851956  17.432853   0.154075  26.083088  -0.028653   1.751150  -1.976566  -2.231842   3.476003   4.486272 -12.824682  19.678053   4.551386 -27.145157   0.330730 -29.609894   0.205634   2.209510  -3.802791   1.959128 -14.498955  -5.848595   5.883792  37.700885  -0.010292  -0.006282 -35.949380  -4.589750  -0.925126   4.457849  -0.000449  -0.004697 -31.658196  -5.864159   5.412757  46.433174  -0.003352   0.037144 -18.506662   3.626034  -1.114739   7.756357  -0.002072   0.011727
 -2.381097   0.872480   3.956423   7.300236   4.556838  -5.990314  -7.395251  -4.090923   3.196677   7.836678  -3.175777   4.468566  -7.328105   1.381998  -0.799943   2.091290  -3.639900   6.239881  -2.254582   1.063144  18.149442   0.137949  28.075246  -0.023091   1.765760  -2.283188  -2.088035   3.580425   4.657090 -13.071573  20.959467   4.475322 -28.528343   0.287963 -30.580882   0.180696   2.198497  -4.649532   1.381854 -13.699972  -6.086501   5.972710  39.718817  -0.012038  -0.015107 -38.150920  -4.561448  -1.055164   4.760080   0.000410  -0.005299 -33.729600  -5.367580   5.626718  50.440340   0.010636   0.044850 -18.395363   3.757692  -0.817881   8.030486  -0.002042   0.011067
 -2.380544   0.862002   3.955201   6.946940   4.137685  -6.014258  -6.856679  -3.797663   3.398649   8.212651  -2.935524   4.482303  -7.846299   1.566944  -1.150548   1.936171  -3.374519   6.193079  -2.754108   1.320673  18.769097   0.122941  29.971280  -0.021444   1.784314  -2.394093  -2.082099   3.722052   4.876410 -13.144219  22.182613   4.473471 -29.713978   0.248085 -31.438178   0.157708   2.175674  -5.245376   0.943346 -12.803796  -6.281364   5.927387  41.541852  -0.013938  -0.022667 -40.205948  -4.531554  -1.175262   5.044239   0.001137  -0.005924 -35.907429  -4.854995   5.733739  54.846589   0.023825   0.045621 -18.724848   3.878330  -0.602003   4.402362  -0.000299  -0.007791
 -2.379936   0.851049   3.953759   6.622823   3.692473  -6.013515  -6.311632  -3.438430   3.596661   8.608278  -2.623605   4.499659  -8.320548   1.741129  -1.486045   1.769429  -3.083076   6.087376  -3.241449   1.591211  19.305595   0.109780  31.756559  -0.022458   1.808682  -2.401742  -2.173881   3.886649   5.131785 -13.103420  23.344594   4.515516 -30.754668   0.212335 -32.212726   0.136753   2.146390  -5.659493   0.645980 -11.846646  -6.445969   5.852548  43.243832  -0.015653  -0.028066 -42.122997  -4.500558  -1.287310   5.309975   0.001685  -0.006338 -38.096296  -4.394910   5.852082  59.249847   0.033117   0.042291 -18.949237   4.033173  -0.369447   1.616131   0.003221  -0.017486
 -2.379277   0.839610   3.952167   6.330939   3.265951  -6.005043  -5.770601  -3.035151   3.801681   9.012546  -2.264270   4.529231  -8.755432   1.906036  -1.800367   1.598148  -2.783737   5.937163  -3.712380   1.861197  19.771902   0.098759  33.432119  -0.025057   1.836728  -2.355231  -2.338622   4.067101   5.411765 -12.987340  24.447382   4.587914 -31.681245   0.180860 -32.915834   0.117815   2.113668  -5.939669   0.454926 -10.845652  -6.587129   5.769809  44.851373  -0.016913  -0.031285 -43.911463  -4.468148  -1.392215   5.554944   0.002056  -0.006466 -40.274999  -3.995565   5.983119  63.595291   0.039370   0.037380 -19.098113   4.187937  -0.139691  -0.480660   0.006092  -0.021270
